<svg xmlns="http://www.w3.org/2000/svg">
  <symbol id="rub" viewBox="0 0 11 11">
    <path d="M3.762 7.238V8.064H6.87V8.862H3.762V10.5H2.348V8.862H0.92V8.064H2.348V0.699999H6.198C7.47667 0.699999 8.47533 0.984666 9.194 1.554C9.91267 2.114 10.272 2.91667 10.272 3.962C10.272 5.01667 9.91267 5.82867 9.194 6.398C8.47533 6.958 7.47667 7.238 6.198 7.238H3.762ZM8.858 3.976C8.858 3.31333 8.62933 2.80467 8.172 2.45C7.71467 2.09533 7.05667 1.918 6.198 1.918H3.762V6.076H6.198C7.04733 6.076 7.70067 5.894 8.158 5.53C8.62467 5.15667 8.858 4.63867 8.858 3.976Z" fill="currentColor"/>
  </symbol>
  <symbol id="attention" viewBox="0 0 67 61">
    <path fill-rule="evenodd" clip-rule="evenodd" d="M36.0368 1.49581C34.9311 -0.498603 32.0689 -0.498604 30.9632 1.49581L0.369413 56.6793C-0.705265 58.6177 0.693418 61 2.9062 61H64.0938C66.3066 61 67.7053 58.6177 66.6306 56.6793L36.0368 1.49581ZM36.0658 21.628H28.5089L29.7684 40.2351H34.8063L36.0658 21.628ZM29.484 49.3961C30.2424 50.1018 31.1769 50.4547 32.2874 50.4547C33.3979 50.4547 34.3188 50.1018 35.0501 49.3961C35.8085 48.6632 36.1877 47.781 36.1877 46.7496C36.1877 45.7181 35.822 44.8631 35.0907 44.1845C34.3594 43.4788 33.425 43.1259 32.2874 43.1259C31.1498 43.1259 30.2153 43.4788 29.484 44.1845C28.7527 44.8631 28.387 45.7181 28.387 46.7496C28.387 47.781 28.7527 48.6632 29.484 49.3961Z" fill="currentColor"/>
  </symbol>
  <symbol id="bell" viewBox="0 0 20 22">
    <path d="M10.2661 21.3049C11.4955 21.3096 12.5049 20.3684 12.5093 19.2134L8.03874 19.1964C8.03436 20.3514 9.03665 21.3002 10.2661 21.3049ZM17.5546 15.0325L17.5765 9.25751C17.5888 6.00253 15.2517 3.36866 12.0133 2.62138L12.0161 1.88638C12.0193 1.04639 11.2397 0.308431 10.3456 0.305043C9.45152 0.301654 8.66639 1.03368 8.66321 1.87368L8.66042 2.60867C5.41648 3.33139 3.0595 5.94747 3.04716 9.20245L3.02528 14.9774L0.782041 17.0689L0.778062 18.1189L19.7779 18.1909L19.7819 17.1409L17.5546 15.0325Z" fill="currentColor"/>
  </symbol>
  <symbol id="bookmark" viewBox="0 0 20 20">
    <path d="M0.0722656 0L19.0721 0.0719992L19.0001 19.0719L9.51932 13.989L0.000266431 18.9999L0.0722656 0Z" fill="currentColor"/>
  </symbol>
  <symbol id="bookmark-3d" viewBox="0 0 37 40">
    <path d="M2.00781 0.973459L34.0076 0.852197L34.1554 39.8519L18.1162 29.5532L2.1556 39.9732L2.00781 0.973459Z" fill="currentColor"/>
    <path d="M2.0419 9.9734L2.0078 0.97346L0.0419174 9.98097L2.0419 9.9734Z" fill="currentColor" style="opacity: 0.75" />
    <path d="M34.0419 9.85213L34.0078 0.852199L36.0419 9.84456L34.0419 9.85213Z" fill="currentColor" style="opacity: 0.75" />
  </symbol>
  <symbol id="building" viewBox="0 0 20 22">
    <path fill-rule="evenodd" clip-rule="evenodd" d="M11.1831 1.30769V2.01578L10.4201 2.02131C10.0004 2.02437 9.63701 2.02932 9.61259 2.03238C9.58298 2.03605 9.5648 3.1735 9.55808 5.44557L9.54797 8.85323L9.21003 8.86615L8.87209 8.87907V8.50104V8.12301H6.03779H3.20349V8.49918V8.87535H2.72401H2.24453L2.23346 14.4183L2.22238 19.9613L1.36119 19.9733L0.5 19.9853V20.6925V21.3996H9.875H19.25V20.6915V19.9834H18.8794H18.5087V10.9996V2.01578H17.6802H16.8517V1.30769V0.599609H14.0174H11.1831V1.30769ZM12.2733 4.42477V5.28479L11.8334 5.29882C11.5915 5.30652 11.3854 5.30448 11.3755 5.29435C11.3657 5.28421 11.3576 4.89091 11.3576 4.4203V3.56472H11.8154H12.2733V4.42477ZM13.7122 4.42769V5.29067H13.2762H12.8401V4.42769V3.56472H13.2762H13.7122V4.42769ZM15.1512 4.44593C15.1512 5.26129 15.1455 5.32599 15.0749 5.31227C15.0329 5.30413 14.8367 5.29594 14.6388 5.29408L14.2791 5.29067V4.42769V3.56472H14.7151H15.1512V4.44593ZM16.6237 4.43491L16.6119 5.30514L16.1759 5.30072L15.7398 5.29629L15.728 4.43048L15.7162 3.56472H16.1759H16.6356L16.6237 4.43491ZM12.2733 7.06244V7.94909L11.8263 7.93648L11.3794 7.92386L11.3669 7.1494C11.3601 6.72344 11.3654 6.33014 11.3787 6.27535C11.4017 6.18038 11.4229 6.17578 11.838 6.17578H12.2733V7.06244ZM13.7122 7.06089V7.94599H13.2762H12.8401V7.06089V6.17578H13.2762H13.7122V7.06089ZM15.1512 7.06089V7.94599H14.7151H14.2791V7.06089V6.17578H14.7151H15.1512V7.06089ZM16.6237 7.04982L16.6119 7.92386H16.1759H15.7398L15.728 7.04982L15.7162 6.17578H16.1759H16.6356L16.6237 7.04982ZM12.2733 9.6735V10.5602L11.8263 10.5475L11.3794 10.5349L11.3675 9.71762C11.3609 9.26812 11.3652 8.87478 11.377 8.84358C11.3924 8.80264 11.5203 8.78684 11.8359 8.78684H12.2733V9.6735ZM13.7122 9.67195V10.5571H13.2762H12.8401V9.67195V8.78684H13.2762H13.7122V9.67195ZM15.1512 9.67195V10.5571H14.7151H14.2791V9.67195V8.78684H14.7151H15.1512V9.67195ZM16.6237 9.66089L16.6119 10.5349H16.1759H15.7398L15.728 9.66089L15.7162 8.78684H16.1759H16.6356L16.6237 9.66089ZM4.33721 10.5792V11.1324H3.87936H3.42151V10.5792V10.026H3.87936H4.33721V10.5792ZM5.85382 10.5902L5.86608 11.1324H5.38507H4.90407V10.5777V10.023L5.37282 10.0356L5.84157 10.0481L5.85382 10.5902ZM7.34593 10.5792V11.1324H6.88808H6.43023V10.5792V10.026H6.88808H7.34593V10.5792ZM8.82849 10.5792V11.1324H8.37064H7.91279V10.5792V10.026H8.37064H8.82849V10.5792ZM12.2733 12.2846V13.1712L11.8263 13.1586L11.3794 13.146L11.3675 12.3287C11.3609 11.8792 11.3652 11.4858 11.377 11.4546C11.3924 11.4137 11.5203 11.3979 11.8359 11.3979H12.2733V12.2846ZM13.7122 12.283V13.1681H13.2762H12.8401V12.283V11.3979H13.2762H13.7122V12.283ZM15.1512 12.283V13.1681H14.7151H14.2791V12.283V11.3979H14.7151H15.1512V12.283ZM16.6119 12.283V13.146L16.165 13.1586L15.718 13.1712V12.283V11.3948L16.165 11.4074L16.6119 11.42V12.283ZM4.33721 12.2609V12.8141H3.87936H3.42151V12.2609V11.7077H3.87936H4.33721V12.2609ZM5.85382 12.2498L5.84157 12.792H5.38372H4.92587L4.91362 12.2498L4.90137 11.7077H5.38372H5.86608L5.85382 12.2498ZM7.34593 12.2609V12.8141H6.88808H6.43023V12.2609V11.7077H6.88808H7.34593V12.2609ZM8.82849 12.2624V12.8172L8.38154 12.8046L7.93459 12.792L7.92234 12.2498L7.91009 11.7077H8.36929H8.82849V12.2624ZM4.33721 13.8983V14.4515H3.87936H3.42151V13.8983V13.3451H3.87936H4.33721V13.8983ZM5.85382 13.9094L5.86608 14.4515H5.38507H4.90407V13.9683C4.90407 13.7026 4.91624 13.453 4.93111 13.4136C4.954 13.3532 5.02599 13.3441 5.39986 13.3547L5.84157 13.3673L5.85382 13.9094ZM7.34593 13.8983V14.4515H6.88808H6.43023V13.8983V13.3451H6.88808H7.34593V13.8983ZM8.82849 13.8983V14.4515H8.37064H7.91279V13.8983V13.3451H8.37064H8.82849V13.8983ZM12.2633 14.9067L12.2751 15.7823L11.8272 15.7697L11.3794 15.7571L11.3675 14.9397C11.3609 14.4902 11.3655 14.0962 11.3776 14.0641C11.3942 14.0201 11.5042 14.0088 11.8256 14.0184L12.2515 14.0311L12.2633 14.9067ZM13.7122 14.8941V15.7792H13.2762H12.8401V14.8941V14.009H13.2762H13.7122V14.8941ZM15.1512 14.8941V15.7792H14.7151H14.2791V14.8941V14.009H14.7151H15.1512V14.8941ZM16.6237 14.9051L16.6356 15.7792H16.1768H15.718V14.9236C15.718 14.453 15.7318 14.054 15.7485 14.037C15.7654 14.0199 15.9665 14.0116 16.1955 14.0185L16.6119 14.0311L16.6237 14.9051ZM4.32762 15.5705L4.33983 16.1364L3.89157 16.1237L3.44331 16.1111L3.43089 15.6049C3.42408 15.3265 3.42858 15.072 3.44087 15.0395C3.45788 14.9945 3.56536 14.9833 3.8893 14.9925L4.31541 15.0047L4.32762 15.5705ZM5.84157 15.5579V16.1111H5.38372H4.92587L4.91344 15.6049C4.90664 15.3265 4.90943 15.0765 4.91968 15.0494C4.9318 15.0173 5.09641 15.0009 5.38996 15.0024L5.84157 15.0047V15.5579ZM7.33634 15.569L7.34855 16.1332H6.88939H6.43023V15.5874C6.43023 15.2872 6.43891 15.0328 6.44951 15.0221C6.46006 15.0113 6.66121 15.003 6.89645 15.0036L7.32413 15.0047L7.33634 15.569ZM8.83656 15.105C8.8441 15.1716 8.8441 15.4308 8.83656 15.6811L8.82282 16.1363L8.37871 16.1237L7.93459 16.1111L7.92217 15.6049C7.91536 15.3265 7.91781 15.0775 7.92762 15.0517C7.93817 15.0239 8.1244 15.0005 8.38416 14.9944L8.82282 14.984L8.83656 15.105ZM12.2633 17.5178L12.2751 18.3933L11.8272 18.3807L11.3794 18.3681L11.3675 17.5508C11.3609 17.1013 11.3655 16.7073 11.3776 16.6752C11.3942 16.6311 11.5042 16.6199 11.8256 16.6295L12.2515 16.6422L12.2633 17.5178ZM13.7122 17.5051V18.3902H13.2762H12.8401V17.5051V16.62H13.2762H13.7122V17.5051ZM15.1512 17.5051V18.3902H14.7151H14.2791V17.5347C14.2791 17.064 14.2922 16.6658 14.3082 16.6496C14.3241 16.6333 14.5203 16.62 14.7442 16.62H15.1512V17.5051ZM16.6237 17.5162L16.6356 18.3902H16.1768H15.718V17.5347C15.718 17.064 15.7318 16.6651 15.7485 16.648C15.7654 16.631 15.9665 16.6227 16.1955 16.6296L16.6119 16.6422L16.6237 17.5162ZM4.33721 17.2175V17.7707H3.87936H3.42151V17.2175V16.6643H3.87936H4.33721V17.2175ZM5.86337 17.2175V17.7707H5.38372H4.90407V17.2175V16.6643H5.38372H5.86337V17.2175ZM7.34593 17.2175V17.7707H6.88808H6.43023V17.2175V16.6643H6.88808H7.34593V17.2175ZM8.82849 17.2175V17.7707H8.37064H7.91279V17.2175V16.6643H8.37064H8.82849V17.2175ZM4.33721 18.8513C4.33721 19.1697 4.31929 19.407 4.29456 19.4155C4.27115 19.4236 4.06512 19.4239 3.83672 19.4161L3.42151 19.4021V18.8519V18.3017H3.87936H4.33721V18.8513ZM5.85378 18.8629L5.86599 19.402L5.43954 19.4165C5.20499 19.4245 4.98858 19.4238 4.95858 19.4148C4.91898 19.4031 4.90407 19.2567 4.90407 18.8797C4.90407 18.5943 4.91781 18.3468 4.93455 18.3298C4.95134 18.3128 5.1623 18.3045 5.4033 18.3113L5.84157 18.3239L5.85378 18.8629ZM7.34593 18.8549V19.4081L7.008 19.4125C6.82215 19.4149 6.61608 19.4218 6.55015 19.4278L6.43023 19.4387V18.8702V18.3017H6.88808H7.34593V18.8549ZM8.82849 18.8549V19.4081H8.37064H7.91279V18.8844C7.91279 18.5964 7.92587 18.3475 7.94188 18.3313C7.95784 18.315 8.16387 18.3017 8.39972 18.3017H8.82849V18.8549Z" fill="currentColor"/>
  </symbol>
  <symbol id="calendar" viewBox="0 0 18 20">
    <path d="M15.5841 2.16637H14.9816V1.509C14.9816 0.67658 14.3248 0 13.5166 0C12.7078 0 12.0515 0.67658 12.0515 1.509V2.16583H10.548V1.509C10.548 0.67658 9.89123 0 9.08298 0C8.27473 0 7.61792 0.67658 7.61792 1.509V2.16583H6.11445V1.509C6.11445 0.67658 5.45764 0 4.64939 0C3.84114 0 3.18433 0.67658 3.18433 1.509V2.16583H2.41503C1.1294 2.16583 0.0830078 3.21225 0.0830078 4.49791V5.59537H1.45479H16.5444H17.9161V4.49791C17.9161 3.2128 16.8703 2.16637 15.5841 2.16637ZM5.29138 4.19557C5.29138 4.57364 5.00331 4.88147 4.64939 4.88147C4.29547 4.88147 4.0074 4.57364 4.0074 4.19557V1.509C4.0074 1.13093 4.29547 0.82309 4.64939 0.82309C5.00331 0.82309 5.29138 1.13093 5.29138 1.509V4.19557ZM9.72497 4.19557C9.72497 4.57364 9.4369 4.88147 9.08298 4.88147C8.72906 4.88147 8.44099 4.57364 8.44099 4.19557V1.509C8.44099 1.13093 8.72906 0.82309 9.08298 0.82309C9.4369 0.82309 9.72497 1.13093 9.72497 1.509V4.19557ZM14.1586 4.19557C14.1586 4.57364 13.8705 4.88147 13.5166 4.88147C13.1621 4.88147 12.8746 4.57364 12.8746 4.19557V1.509C12.8746 1.13093 13.1621 0.82309 13.5166 0.82309C13.8705 0.82309 14.1586 1.13093 14.1586 1.509V4.19557Z" fill="currentColor"/>
    <path d="M0.0830078 17.6678C0.0830078 18.9534 1.1294 19.9999 2.41503 19.9999H15.5841C16.8703 19.9999 17.9161 18.9534 17.9161 17.6678V6.63892H0.0830078V17.6678ZM12.7879 8.40307H15.3098V10.6463H12.7879V8.40307ZM12.7879 11.3975H15.3098V13.6396H12.7879V11.3975ZM12.7879 14.3924H15.3098V16.6345H12.7879V14.3924ZM9.42318 8.40307H11.9445V10.6463H9.42318V8.40307ZM9.42318 11.3975H11.9445V13.6396H9.42318V11.3975ZM9.42318 14.3924H11.9445V16.6345H9.42318V14.3924ZM6.05574 8.40307H8.57762V10.6463H6.05574V8.40307ZM6.05574 11.3975H8.57762V13.6396H6.05574V11.3975ZM6.05574 14.3924H8.57762V16.6345H6.05574V14.3924ZM2.68939 11.3975H5.21127V13.6396H2.68939V11.3975ZM2.68939 14.3924H5.21127V16.6345H2.68939V14.3924Z" fill="currentColor"/>
  </symbol>
  <symbol id="camera" viewBox="0 0 38 30">
    <path fill-rule="evenodd" clip-rule="evenodd" d="M15.4235 1.10845C15.1113 1.29646 15.1502 1.24086 14.0094 3.12989L13.06 4.70196H11.4528H9.84563L9.84535 4.18972C9.84506 3.55785 9.6931 3.2712 9.25417 3.07435C8.97813 2.9505 8.76768 2.93856 6.83945 2.93714C4.78802 2.93566 4.71808 2.94018 4.41337 3.09456C3.99353 3.30723 3.83871 3.60872 3.83871 4.2136V4.68126L3.30896 4.72549C2.5819 4.78619 2.05673 4.99582 1.6012 5.40717C1.1451 5.81902 0.875865 6.28669 0.766596 6.85694C0.707671 7.16422 0.691152 10.0022 0.70667 17.1726L0.72798 27.0643L0.949307 27.5235C1.23049 28.1072 1.67471 28.5461 2.26547 28.8239L2.73029 29.0426H18.999H35.2678L35.7326 28.8239C36.3234 28.5461 36.7676 28.1072 37.0488 27.5235L37.2701 27.0643L37.2914 17.1726C37.3069 10.0022 37.2904 7.16422 37.2315 6.85694C37.1868 6.62378 37.0659 6.27913 36.9629 6.09111C36.71 5.62952 36.1078 5.10102 35.6073 4.90128L35.1963 4.73729L30.0666 4.71701L24.9369 4.69667L24.0342 3.19793C22.8769 1.27647 22.8752 1.27399 22.5661 1.1023C22.313 0.961769 22.2013 0.957247 18.9893 0.95753C15.7312 0.957742 15.6694 0.960356 15.4235 1.10845ZM33.48 8.18766C33.8101 8.38712 33.9679 8.64642 34.0001 9.0423C34.0236 9.33213 33.9969 9.44772 33.8604 9.64782C33.5387 10.1193 33.4208 10.1422 31.3097 10.1423C29.2321 10.1424 29.0829 10.1165 28.7851 9.70328C28.3546 9.10596 28.6967 8.2745 29.4484 8.09093C29.5812 8.05843 30.4944 8.0378 31.4777 8.04501C33.0717 8.05667 33.2887 8.07214 33.48 8.18766ZM19.9287 9.47288C22.513 9.71105 24.9998 11.5775 26.0191 14.0441C26.4331 15.046 26.5395 15.638 26.537 16.9253C26.535 17.9634 26.5138 18.168 26.3433 18.7926C25.2287 22.8774 20.9685 25.2627 16.879 24.0918C14.3508 23.3679 12.3492 21.3377 11.6548 18.7926C11.4843 18.168 11.4631 17.9634 11.4611 16.9253C11.4586 15.638 11.565 15.046 11.979 14.0441C13.0317 11.4968 15.5295 9.67919 18.3136 9.43479C18.883 9.38484 19.0048 9.38774 19.9287 9.47288ZM18.4134 11.7013C15.8264 11.9912 13.8696 14.0411 13.7275 16.6102C13.6108 18.7203 14.771 20.6802 16.6749 21.5888C17.5188 21.9915 18.0364 22.107 18.999 22.107C19.9617 22.107 20.4792 21.9915 21.3232 21.5888C23.9557 20.3324 25.0443 17.1207 23.7183 14.5225C22.744 12.6136 20.5736 11.4593 18.4134 11.7013Z" fill="currentColor"/>
  </symbol>
  <symbol id="chevron" viewBox="0 0 12 8">
    <path d="M6.3293 7.10387L11.8643 1.55351C12.0455 1.37166 12.0452 1.07724 11.8634 0.895697C11.6815 0.714292 11.3869 0.714761 11.2055 0.896635L5.99998 6.11662L0.794437 0.896447C0.613032 0.714596 0.318634 0.714128 0.13676 0.89551C0.0455885 0.986517 2.86102e-06 1.10574 2.86102e-06 1.22497C2.86102e-06 1.34389 0.0452833 1.46265 0.135822 1.55349L5.67068 7.10387C5.75782 7.19145 5.87642 7.2406 5.99998 7.2406C6.12354 7.2406 6.24199 7.19131 6.3293 7.10387Z" fill="#1E202E"/>
  </symbol>
  <symbol id="clip" viewBox="0 0 16 29">
    <path d="M4.55985 7.07661C4.38976 7.2467 4.29973 7.46408 4.28103 7.68623L4.26839 7.68626L4.24712 18.517C4.24668 19.7464 4.59406 20.598 5.44663 21.457C6.11595 22.1263 6.96553 22.481 7.83865 22.4558C8.74023 22.4296 9.61585 22.0167 10.371 21.2613L10.3868 21.2455C11.1695 20.4558 11.5959 19.411 11.5877 18.3049L11.5923 5.71749C11.5929 2.52887 9.36295 0.215277 6.2897 0.215867C4.76553 0.216291 3.33098 0.811603 2.25031 1.89227C1.16968 2.9729 0.574659 4.40717 0.574851 5.93083L0.569958 21.697C0.569024 25.7168 3.83869 28.9864 7.85845 28.9855C9.80225 28.9847 11.6319 28.225 13.0105 26.8464C14.3891 25.4678 15.149 23.6381 15.15 21.6937L15.125 5.34174C15.125 5.34174 15.1282 4.98506 14.83 4.68691C14.448 4.3049 13.8284 4.30505 13.4462 4.68725C13.2645 4.86887 13.172 5.10448 13.163 5.34247L13.1588 5.34247L13.1837 21.6947C13.183 23.1141 12.6281 24.4504 11.6211 25.4573C10.6142 26.4643 9.27804 27.019 7.85892 27.0195C4.92273 27.0197 2.53495 24.6319 2.53609 21.6967L2.5411 5.93062C2.54134 4.93152 2.9318 3.99107 3.64046 3.28241C4.34915 2.57372 5.29012 2.18298 6.28952 2.18221C7.28669 2.18197 8.12952 2.52345 8.72733 3.16981C9.31557 3.80602 9.62646 4.68707 9.62618 5.71791L9.62178 18.3318C9.62205 18.909 9.39822 19.4521 8.99187 19.8604C8.21707 20.6352 7.32379 20.5526 6.84246 20.0713C6.4373 19.663 6.21373 19.1203 6.21343 18.5431L6.23473 7.68597L6.22237 7.686C6.20376 7.46383 6.11388 7.24649 5.94385 7.07645C5.5616 6.6941 4.94204 6.69442 4.55985 7.07661Z" fill="currentColor"/>
  </symbol>
  <symbol id="copy" viewBox="0 0 20 20">
    <g clip-path="url(#clip0_942_31683)">
      <path d="M14.2857 3.57129H2.14286C0.959388 3.57129 0 4.53068 0 5.71415V17.857C0 19.0404 0.959388 19.9998 2.14286 19.9998H14.2857C15.4692 19.9998 16.4285 19.0404 16.4285 17.857V5.71415C16.4285 4.53068 15.4692 3.57129 14.2857 3.57129Z" fill="currentColor"/>
      <path d="M17.8574 1.38366e-09H5.00028C3.82321 -4.18513e-05 2.86646 0.949386 2.85742 2.12641C2.85742 2.13214 2.85742 2.13712 2.85742 2.14286H14.286C16.2575 2.1452 17.8551 3.7428 17.8574 5.71427V17.1428C17.8631 17.1428 17.8681 17.1428 17.8739 17.1428C19.0509 17.1338 20.0003 16.1771 20.0003 15V2.14286C20.0003 0.959388 19.0409 1.38366e-09 17.8574 1.38366e-09Z" fill="currentColor"/>
    </g>
    <defs>
      <clipPath id="clip0_942_31683">
        <rect width="20" height="20" fill="white"/>
      </clipPath>
    </defs>
  </symbol>
  <symbol id="cross" viewBox="0 0 20 20">
    <path fill-rule="evenodd" clip-rule="evenodd" d="M0.516566 0.0385499C0.249476 0.115593 0.000753061 0.471257 0.000753061 0.776185C0.000753061 1.11453 -0.166574 0.934844 4.48719 5.59381L8.88946 10.001L4.48692 14.4082C0.435521 18.4639 0.0807041 18.8294 0.0383449 18.9909C-0.125074 19.6134 0.394373 20.133 1.01671 19.9696C1.17817 19.9272 1.54358 19.5723 5.59807 15.5197L10.004 11.1159L14.4099 15.5197C18.4644 19.5723 18.8298 19.9272 18.9912 19.9696C19.6136 20.133 20.133 19.6134 19.9696 18.9909C19.9272 18.8294 19.5724 18.4639 15.521 14.4082L11.1185 10.001L15.521 5.59381C19.5724 1.53813 19.9272 1.17262 19.9696 1.01111C20.133 0.388585 19.6136 -0.131015 18.9912 0.0324521C18.8298 0.0748238 18.4644 0.429745 14.4099 4.48234L10.004 8.88618L5.59807 4.48261C1.77972 0.666268 1.17134 0.0734167 1.03586 0.0369473C0.851024 -0.0128121 0.692919 -0.012343 0.516566 0.0385499Z" fill="currentColor"/>
  </symbol>
  <symbol id="plus" viewBox="0 0 10 11">
    <path fill-rule="evenodd" clip-rule="evenodd" d="M0 5.5C0 5.22386 0.223858 5 0.5 5H9.5C9.77614 5 10 5.22386 10 5.5C10 5.77614 9.77614 6 9.5 6H0.5C0.223858 6 0 5.77614 0 5.5Z" fill="currentColor"/>
    <path fill-rule="evenodd" clip-rule="evenodd" d="M5 10.5C4.72386 10.5 4.5 10.2761 4.5 10L4.5 1C4.5 0.723858 4.72386 0.5 5 0.5C5.27614 0.5 5.5 0.723858 5.5 1L5.5 10C5.5 10.2761 5.27614 10.5 5 10.5Z" fill="currentColor"/>
  </symbol>
  <symbol id="filter" viewBox="0 0 22 22">
    <path fill-rule="evenodd" clip-rule="evenodd" d="M0 1.56899V3.13799H11H22V1.56899V0H11H0V1.56899ZM1.67887 5.74939C2.40114 6.47638 4.27165 8.37022 5.83567 9.95791L8.6793 12.8446L8.69021 17.4223L8.70117 22L11.0107 20.5346L13.3203 19.0693V15.9571V12.845L16.1642 9.95812C17.7283 8.37035 19.5989 6.47642 20.3211 5.74939L21.6343 4.42757H11H0.36575L1.67887 5.74939Z" fill="#ED1D4A"/>
  </symbol>
  <symbol id="google" viewBox="0 0 40 40">
    <path fill-rule="evenodd" clip-rule="evenodd" d="M20 40C31.0457 40 40 31.0457 40 20C40 8.9543 31.0457 0 20 0C8.9543 0 0 8.9543 0 20C0 31.0457 8.9543 40 20 40ZM24.7135 15.3222L24.1957 14.8043C22.9414 13.5501 21.2737 12.8594 19.5 12.8594C17.077 12.8594 14.9533 14.164 13.7935 16.1075V16.1076C13.2006 17.1011 12.8594 18.2614 12.8594 19.5C12.8594 20.7386 13.2006 21.8989 13.7935 22.8924L13.7935 22.8924C14.9532 24.8359 17.0769 26.1406 19.5 26.1406V26.1407L19.5 26.1407C20.7295 26.1407 21.8947 25.806 22.8969 25.211L22.8969 25.211C23.9689 24.5745 24.8544 23.6399 25.4303 22.4943H19.5V16.635H31.6854L31.7953 17.2355C31.9312 17.9776 32 18.7395 32 19.5C32 22.8389 30.6998 25.9779 28.3388 28.3389C27.9486 28.729 27.5368 29.0896 27.1067 29.4208V29.4208C24.9344 31.0934 22.2871 32 19.5 32L19.4999 31.9999C16.1611 31.9999 13.0221 30.6997 10.6612 28.3388C10.271 27.9486 9.91043 27.5368 9.5793 27.1067H9.57925C7.90664 24.9345 7 22.2871 7 19.5C7 16.713 7.90664 14.0656 9.57925 11.8934L9.57922 11.8933C9.91037 11.4632 10.271 11.0513 10.6612 10.6611C13.0221 8.30024 16.1612 7 19.5 7C22.8389 7 25.9779 8.30024 28.3389 10.6612L28.8567 11.1791L24.7135 15.3222Z" fill="#DDE4E8"/>
  </symbol>
  <symbol id="apple" viewBox="0 0 40 40">
    <path fill-rule="evenodd" clip-rule="evenodd" d="M40 20C40 31.0457 31.0457 40 20 40C8.9543 40 0 31.0457 0 20C0 8.9543 8.9543 0 20 0C31.0457 0 40 8.9543 40 20ZM24.499 6C23.2195 6.0885 21.724 6.90749 20.8525 7.97399C20.0575 8.94148 19.4035 10.3785 19.6585 11.775C21.0565 11.8185 22.501 10.98 23.338 9.89548C24.121 8.88598 24.7135 7.45799 24.499 6ZM24.97 11.6175C26.6005 11.6175 28.3269 12.5115 29.5554 14.052C25.528 16.2735 26.1805 22.0604 30.2499 23.6099C29.6904 24.8579 29.4219 25.4144 28.7004 26.5199C27.6939 28.0619 26.2765 29.9834 24.517 29.9969C23.7937 30.0045 23.3192 29.7856 22.8076 29.5496C22.2146 29.276 21.5718 28.9795 20.434 28.9859C19.3025 28.9915 18.6493 29.2844 18.0482 29.554C17.5234 29.7893 17.0383 30.0069 16.309 29.9999C14.551 29.9849 13.207 28.2509 12.2005 26.7089C9.38805 22.3994 9.09106 17.34 10.8265 14.649C12.061 12.738 14.008 11.6205 15.8365 11.6205C16.811 11.6205 17.5965 11.9021 18.3449 12.1705C19.0262 12.4147 19.6768 12.648 20.4115 12.648C21.0913 12.648 21.6503 12.435 22.26 12.2027C22.9915 11.924 23.796 11.6175 24.97 11.6175Z" fill="#DDE4E8"/>
  </symbol>
  <symbol id="facebook" viewBox="0 0 40 40">
    <path d="M20 0C8.95427 0 0 8.95427 0 20C0 31.0457 8.95427 40 20 40C31.0457 40 40 31.0457 40 20C40 8.95427 31.0457 0 20 0ZM27.6301 10.1852L24.8638 10.1864C22.6946 10.1864 22.2752 11.2172 22.2752 12.7296V16.0647H27.448L27.4455 21.2882H22.2756V34.693H16.8802V21.2882H12.3699V16.0647H16.8802V12.2124C16.8802 7.74179 19.6117 5.30701 23.5994 5.30701L27.6305 5.31315V10.1852H27.6301Z" fill="#DDE4E8"/>
  </symbol>
  <symbol id="vk" viewBox="0 0 40 40">
    <path d="M20 0C8.95468 0 0 8.95427 0 20C0 31.0457 8.95468 40 20 40C31.0453 40 40 31.0457 40 20C40 8.95427 31.0453 0 20 0ZM30.1451 22.1631C31.0772 23.0736 32.0634 23.9304 32.9003 24.935C33.271 25.3794 33.6205 25.839 33.8864 26.3558C34.2662 27.0928 33.9233 27.901 33.2636 27.9448L29.1662 27.9439C28.108 28.0315 27.2659 27.6047 26.5559 26.8812C25.9892 26.3047 25.4633 25.6888 24.9174 25.0926C24.6944 24.8479 24.4595 24.6175 24.1796 24.4362C23.6211 24.0728 23.1358 24.1841 22.8158 24.7677C22.4896 25.3614 22.4151 26.0194 22.384 26.6803C22.3394 27.6464 22.0481 27.8989 21.0787 27.9443C19.0073 28.0413 17.0418 27.7271 15.2151 26.6828C13.6037 25.7616 12.3564 24.4616 11.2696 22.9897C9.15315 20.1203 7.53228 16.971 6.07591 13.7314C5.74813 13.0017 5.98793 12.6114 6.79284 12.5962C8.13013 12.5704 9.46742 12.5737 10.8047 12.595C11.349 12.6036 11.7091 12.915 11.9182 13.4285C12.6408 15.2065 13.5268 16.8982 14.6369 18.4671C14.9328 18.8849 15.2348 19.3015 15.6649 19.5965C16.1395 19.9223 16.5013 19.8146 16.7251 19.2847C16.8683 18.9479 16.9301 18.5878 16.9612 18.2269C17.0676 16.9907 17.0803 15.7549 16.8962 14.5236C16.7816 13.753 16.3482 13.2554 15.5802 13.1098C15.189 13.0357 15.2462 12.8908 15.4365 12.6674C15.7668 12.2811 16.0761 12.0421 16.6944 12.0421L21.3238 12.0413C22.0534 12.1846 22.2171 12.5119 22.3161 13.2469L22.3202 18.3914C22.3116 18.6758 22.463 19.5188 22.9737 19.705C23.3829 19.84 23.653 19.5118 23.8977 19.2528C25.0079 18.0747 25.7989 16.6842 26.5072 15.245C26.8198 14.6103 27.0895 13.9536 27.3514 13.2956C27.5462 12.809 27.849 12.5696 28.3982 12.5778L32.8561 12.5831C32.9874 12.5831 33.1208 12.5843 33.2509 12.6069C34.0023 12.7353 34.2081 13.0586 33.9757 13.7915C33.6098 14.943 32.899 15.9022 32.2042 16.8638C31.4594 17.8934 30.6652 18.887 29.9278 19.921C29.2501 20.8663 29.3037 21.3422 30.1451 22.1631Z" fill="#DDE4E8"/>
  </symbol>
  <symbol id="yandex" viewBox="0 0 40 40">
    <path d="M20.0003 39.959C31.0235 39.959 39.9595 31.023 39.9595 19.9998C39.9595 8.97659 31.0235 0.0405273 20.0003 0.0405273C8.97708 0.0405273 0.0410156 8.97659 0.0410156 19.9998C0.0410156 31.023 8.97708 39.959 20.0003 39.959Z" fill="#DDE4E8"/>
    <path d="M27.2218 32.5298H22.8403V10.8594H20.8884C17.3107 10.8594 15.4366 12.6483 15.4366 15.3186C15.4366 18.3483 16.7292 19.752 19.4032 21.5409L21.6069 23.0261L15.2736 32.5261H10.5625L16.2625 24.0446C12.9847 21.7038 11.1403 19.4186 11.1403 15.5631C11.1403 10.7446 14.4995 7.4668 20.8588 7.4668H27.1921V32.5223H27.2218V32.5298Z" fill="white"/>
  </symbol>
  <symbol id="odnoklassniki" viewBox="0 0 40 40">
    <path fill-rule="evenodd" clip-rule="evenodd" d="M40 20C40 31.0457 31.0457 40 20 40C8.9543 40 0 31.0457 0 20C0 8.9543 8.9543 0 20 0C31.0457 0 40 8.9543 40 20ZM19.9999 6C16.1394 6 13 9.13945 13 12.9999C13 16.8603 16.1394 19.9998 19.9999 19.9998C23.8603 19.9998 26.9998 16.8603 26.9998 12.9999C26.9998 9.13945 23.8603 6 19.9999 6ZM19.9999 16.4998C18.0697 16.4998 16.4999 14.9301 16.4999 12.9999C16.4999 11.0697 18.0697 9.49995 19.9999 9.49995C21.9301 9.49995 23.4998 11.0697 23.4998 12.9999C23.4998 14.9301 21.9301 16.4998 19.9999 16.4998ZM26.8073 19.8055C27.4915 19.1212 28.5975 19.1212 29.2817 19.8055C29.9642 20.4897 29.9642 21.5974 29.28 22.2817C27.103 24.4586 24.3433 25.6994 21.4979 26.0231L26.487 31.0123C27.1713 31.6965 27.1713 32.8025 26.487 33.4868C26.1458 33.828 25.6978 33.9995 25.2498 33.9995C24.8018 33.9995 24.3538 33.828 24.0126 33.4868L19.9999 29.4741L15.9872 33.4868C15.303 34.171 14.197 34.171 13.5127 33.4868C12.8285 32.8025 12.8285 31.6965 13.5127 31.0123L18.5019 26.0231C15.6564 25.6994 12.8967 24.4586 10.7198 22.2817C10.0355 21.5957 10.0355 20.4897 10.7198 19.8055C11.404 19.1212 12.51 19.1212 13.1942 19.8055C16.9479 23.5574 23.0553 23.5574 26.8073 19.8055Z" fill="#DDE4E8"/>
  </symbol>
  <symbol id="like" viewBox="0 0 12 15">
    <path d="M11.9904 6.77719C11.9008 5.94616 11.1642 5.35714 10.3707 5.35714H6.40796C6.74473 4.72157 6.92549 2.92394 6.91748 2.18961C6.90419 0.974078 5.94911 0 4.79579 0H4.37637C4.09543 0 3.86807 0.239599 3.86807 0.535729C3.86807 1.77453 3.4104 4.01055 2.54724 4.92032C1.96627 5.53265 1.46961 5.75453 0.818359 6.09757V14.1359C1.81544 14.4862 3.08141 15 5.01101 15H8.33594C9.4315 15 10.2847 13.9306 9.86022 12.8007C10.507 12.615 10.984 11.9898 10.984 11.25C10.984 11.0412 10.9458 10.8414 10.8768 10.6578C11.9667 10.3448 12.3679 8.92635 11.6114 8.03571C11.8893 7.70846 12.0426 7.26085 11.9904 6.77719Z" fill="#DDE4E8"/>
  </symbol>
  <symbol id="dislike" viewBox="0 0 15 15">
    <path d="M12.2737 9.64258L14.4547 9.64258C14.7558 9.64258 15 9.40273 15 9.10686L15 0.535617C15 0.239777 14.7559 -0.000102997 14.4547 -0.000102997L12.2737 -0.000102997C11.9726 -0.000102997 11.7284 0.23974 11.7284 0.535617L11.7284 9.10689C11.7284 9.40273 11.9725 9.64258 12.2737 9.64258Z" fill="#DDE4E8"/>
    <path d="M0.00915718 8.22288C0.0965881 9.05391 0.81487 9.64292 1.58876 9.64292L5.45325 9.64292C5.12483 10.2785 4.94855 12.0761 4.95636 12.8104C4.96933 14.0259 5.90073 15 7.02546 15L7.43448 15C7.70845 15 7.93018 14.7604 7.93018 14.4643C7.93018 13.2255 8.37651 10.9895 9.21827 10.0797C9.78484 9.46741 10.2692 9.24553 10.9043 8.9025L10.9043 0.864238C9.93193 0.513969 8.69734 0.0001688 6.81557 0.0001688L3.57306 0.0001688C2.50466 0.0001688 1.67256 1.06958 2.08657 2.19948C1.45581 2.38518 0.990656 3.01037 0.990656 3.75012C0.990656 3.95888 1.02792 4.1587 1.0952 4.34233C0.0322762 4.65532 -0.358972 6.07375 0.37877 6.96438C0.107736 7.29162 -0.0417318 7.73923 0.00915718 8.22288Z" fill="#DDE4E8"/>
  </symbol>
  <symbol id="line" viewBox="0 0 13 1">
    <line x1="6.55671e-09" y1="0.5" x2="13" y2="0.5" stroke="currentColor"/>
  </symbol>
  <symbol id="menu" viewBox="0 0 21 17">
    <line x1="0.75" y1="1.25" x2="20.25" y2="1.25" stroke="#1E202E" stroke-width="1.5" stroke-linecap="square"/>
    <line x1="0.75" y1="8.75" x2="12.55" y2="8.75" stroke="#1E202E" stroke-width="1.5" stroke-linecap="square"/>
    <line x1="0.75" y1="16.25" x2="20.25" y2="16.25" stroke="#1E202E" stroke-width="1.5" stroke-linecap="square"/>
  </symbol>
  <symbol id="play" viewBox="0 0 47 54">
    <path d="M46.0195 26.5672C46.3529 26.7596 46.3529 27.2408 46.0195 27.4332L1.36569 53.2141C1.03236 53.4066 0.615688 53.166 0.615688 52.7811L0.615688 1.21928C0.615688 0.834378 1.03236 0.593815 1.36569 0.786265L46.0195 26.5672Z" fill="#ED1D4A"/>
  </symbol>
  <symbol id="rectangle" viewBox="0 0 13 13">
    <rect x="0.5" y="0.5" width="12" height="12" fill="white" stroke="currentColor"/>
  </symbol>
  <symbol id="rectangle-double" viewBox="0 0 14 13">
    <rect x="2.42285" y="0.536987" width="10.5385" height="10.1111" stroke="currentColor"/>
    <rect x="0.5" y="2.38892" width="10.5385" height="10.1111" fill="white" stroke="currentColor"/>
  </symbol>
  <symbol id="star" viewBox="0 0 38 35" fill="currentColor">
    <path d="M16.9853 1.8578C17.5947 0.0473986 20.2719 0.0473986 20.8814 1.8578L23.6052 9.94826C24.0176 11.1732 25.1926 11.987 26.501 11.987H35.3152C37.3356 11.987 38.0864 14.4289 36.525 15.5237L29.3941 20.5239C28.3252 21.2734 27.8686 22.6121 28.2822 23.8407L31.006 31.9311C31.3065 32.8237 30.9385 33.6397 30.2677 34.1101C29.5947 34.582 28.6548 34.6757 27.8481 34.1101L20.7172 29.1099C19.6524 28.3632 18.2143 28.3632 17.1494 29.1099L10.0186 34.1101C9.21192 34.6757 8.27195 34.582 7.599 34.1101C6.92814 33.6397 6.5602 32.8237 6.8607 31.9311L9.58445 23.8407C9.99808 22.6121 9.54146 21.2734 8.47255 20.5239L1.34168 15.5237C-0.219712 14.4289 0.531027 11.987 2.55147 11.987H11.3657C12.6741 11.987 13.8491 11.1732 14.2615 9.94826L16.9853 1.8578Z" stroke="currentColor"/>
  </symbol>
  <symbol id="star-empty" viewBox="0 0 38 35" fill="none">
    <path d="M16.9853 1.8578C17.5947 0.0473986 20.2719 0.0473986 20.8814 1.8578L23.6052 9.94826C24.0176 11.1732 25.1926 11.987 26.501 11.987H35.3152C37.3356 11.987 38.0864 14.4289 36.525 15.5237L29.3941 20.5239C28.3252 21.2734 27.8686 22.6121 28.2822 23.8407L31.006 31.9311C31.3065 32.8237 30.9385 33.6397 30.2677 34.1101C29.5947 34.582 28.6548 34.6757 27.8481 34.1101L20.7172 29.1099C19.6524 28.3632 18.2143 28.3632 17.1494 29.1099L10.0186 34.1101C9.21192 34.6757 8.27195 34.582 7.599 34.1101C6.92814 33.6397 6.5602 32.8237 6.8607 31.9311L9.58445 23.8407C9.99808 22.6121 9.54146 21.2734 8.47255 20.5239L1.34168 15.5237C-0.219712 14.4289 0.531027 11.987 2.55147 11.987H11.3657C12.6741 11.987 13.8491 11.1732 14.2615 9.94826L16.9853 1.8578Z" stroke="#DDE4E8"/>
  </symbol>
  <symbol id="truck" viewBox="0 0 37 23">
    <path d="M34.635 10.78C34.5188 10.7556 34.4092 10.7327 34.3116 10.7073C33.206 10.4198 32.7014 10.2622 32.3283 9.54183L30.915 6.68053C30.4608 5.80369 29.288 5.09028 28.3006 5.09028H25.7845V1.7862C25.7845 1.19295 25.3018 0.710251 24.7083 0.710251L7.18358 0.72785C6.60617 0.72785 6.17075 1.18671 6.17075 1.79524V2.77183H1.68136C0.754284 2.77191 0 3.52612 0 4.45327C0 5.38043 0.754284 6.13463 1.68136 6.13463H6.17067V7.74616H3.23137C2.30429 7.74616 1.55001 8.50044 1.55001 9.42752C1.55001 10.3546 2.30429 11.1089 3.23137 11.1089H6.17067V12.7204H4.78137C3.8543 12.7204 3.10001 13.4747 3.10001 14.4018C3.10001 15.3288 3.8543 16.0831 4.78137 16.0831H6.17067V17.7686C6.17067 18.3619 6.65336 18.8446 7.24661 18.8446H9.06957C9.35347 20.7903 11.0328 22.2895 13.0563 22.2895C15.08 22.2895 16.7594 20.7903 17.0434 18.8446H24.421C24.4593 18.8446 24.4986 18.842 24.5378 18.8395C24.8195 20.7877 26.4999 22.2895 28.5252 22.2895C30.5489 22.2895 32.2283 20.7903 32.5123 18.8446H35.1307C36.1615 18.8446 37.0001 18.0061 37.0001 16.9754V13.8037C37 11.2762 35.5767 10.9776 34.635 10.78ZM28.5252 16.7956C29.3332 16.7956 29.9905 17.4527 29.9905 18.2604C29.9905 19.0681 29.3332 19.7252 28.5252 19.7252C27.7176 19.7252 27.0605 19.0681 27.0605 18.2604C27.0605 17.4527 27.7176 16.7956 28.5252 16.7956ZM25.7845 10.5522V6.65077H27.7072C28.4462 6.65077 29.3579 7.2053 29.6963 7.85823L30.9539 10.4044C30.9805 10.4559 31.0082 10.5051 31.0369 10.5521H25.7845V10.5522ZM14.5216 18.2603C14.5216 19.0679 13.8643 19.7251 13.0563 19.7251C12.2487 19.7251 11.5917 19.068 11.5917 18.2603C11.5917 17.4526 12.2487 16.7955 13.0563 16.7955C13.8643 16.7956 14.5216 17.4527 14.5216 18.2603Z" fill="currentColor"/>
  </symbol>
  <symbol id="check" viewBox="0 0 13 9">
    <path d="M12.0757 0.179484C11.8365 -0.0598279 11.4485 -0.0598279 11.2092 0.179484L3.86792 7.5208L1.04606 4.69895C0.806773 4.45964 0.418819 4.45966 0.179484 4.69895C-0.0598279 4.93824 -0.0598279 5.32619 0.179484 5.5655L3.43463 8.8206C3.67384 9.05989 4.06208 9.05972 4.3012 8.8206L12.0757 1.04606C12.3151 0.806773 12.315 0.418795 12.0757 0.179484Z" fill="currentColor"/>
  </symbol>
  <svg id="check-circle" viewBox="0 0 13 13" fill="none">
    <path fill-rule="evenodd" clip-rule="evenodd" d="M6.5 11.4706C9.24518 11.4706 11.4706 9.24518 11.4706 6.5C11.4706 3.75482 9.24518 1.52941 6.5 1.52941C3.75482 1.52941 1.52941 3.75482 1.52941 6.5C1.52941 9.24518 3.75482 11.4706 6.5 11.4706ZM6.5 13C10.0899 13 13 10.0899 13 6.5C13 2.91015 10.0899 0 6.5 0C2.91015 0 0 2.91015 0 6.5C0 10.0899 2.91015 13 6.5 13Z" fill="#27AE60"/>
    <path fill-rule="evenodd" clip-rule="evenodd" d="M9.81542 4.14806C10.0413 4.36432 10.0629 4.73832 9.86354 4.98341L6.59724 9L4.16539 6.43676C3.94931 6.20901 3.94431 5.83432 4.15421 5.59986C4.36412 5.36541 4.70944 5.35998 4.92552 5.58774L6.53645 7.28571L9.04554 4.20027C9.24485 3.95518 9.58954 3.9318 9.81542 4.14806Z" fill="#27AE60"/>
  </svg>
  <symbol id="not-allowed" viewBox="0 0 13 13">
    <path d="M6.5 0C2.91596 0 0 2.91596 0 6.5C0 10.084 2.91596 13 6.5 13C10.084 13 13 10.084 13 6.5C13 2.91596 10.084 0 6.5 0ZM6.5 11.375C3.81202 11.375 1.625 9.18798 1.625 6.5C1.625 5.47407 1.93604 4.5042 2.52743 3.67661L9.32339 10.4726C8.4958 11.064 7.52593 11.375 6.5 11.375ZM10.4726 9.32339L3.67661 2.52743C4.5042 1.93604 5.47407 1.625 6.5 1.625C9.18798 1.625 11.375 3.81202 11.375 6.5C11.375 7.52593 11.064 8.4958 10.4726 9.32339Z" fill="#ED1D4A"/>
  </symbol>
  <symbol id="pending" viewBox="0 0 13 13">
    <path fill-rule="evenodd" clip-rule="evenodd" d="M6.5 11.4706C9.24518 11.4706 11.4706 9.24518 11.4706 6.5C11.4706 3.75482 9.24518 1.52941 6.5 1.52941C3.75482 1.52941 1.52941 3.75482 1.52941 6.5C1.52941 9.24518 3.75482 11.4706 6.5 11.4706ZM6.5 13C10.0899 13 13 10.0899 13 6.5C13 2.91015 10.0899 0 6.5 0C2.91015 0 0 2.91015 0 6.5C0 10.0899 2.91015 13 6.5 13Z" fill="#2D9CDB"/>
    <path fill-rule="evenodd" clip-rule="evenodd" d="M10.1855 6.72975C10.1916 6.98734 9.98772 7.20111 9.73014 7.20723L5.50882 7.30751L5.57893 4.40854C5.58516 4.15096 5.79902 3.94719 6.0566 3.95342C6.31418 3.95965 6.51795 4.17351 6.51172 4.43109L6.46528 6.35146L9.70798 6.27443C9.96556 6.26831 10.1793 6.47217 10.1855 6.72975Z" fill="#2D9CDB"/>
  </symbol>
  <symbol id="send" viewBox="0 0 25 25">
    <path d="M24.244 11.2421L1.87716 0.132162C1.65193 0.0202996 1.40126 -0.0218311 1.15426 0.0106625C0.907256 0.0431561 0.674053 0.148941 0.48173 0.315732C0.289407 0.482524 0.145855 0.703479 0.0677429 0.95294C-0.0103687 1.2024 -0.0198349 1.47013 0.0404437 1.72504L1.63507 8.45903L11.8422 12.4989L1.63507 16.5387L0.0404437 23.2727C-0.0209691 23.5278 -0.0122929 23.7961 0.0654574 24.0462C0.143208 24.2963 0.286817 24.5178 0.479487 24.6849C0.672158 24.852 0.905922 24.9577 1.15344 24.9897C1.40095 25.0217 1.65198 24.9787 1.87716 24.8656L24.244 13.7557C24.47 13.6435 24.6612 13.4658 24.795 13.2432C24.9289 13.0207 25 12.7625 25 12.4989C25 12.2353 24.9289 11.9771 24.795 11.7545C24.6612 11.532 24.47 11.3542 24.244 11.2421Z" fill="#BCC2C7"/>
  </symbol>
  <symbol id="smile" viewBox="0 0 20 20">
    <path d="M10 0C4.47766 0 0 4.47708 0 10C0 15.5229 4.47766 20 10 20C15.5235 20 20 15.5229 20 10C20 4.47708 15.5235 0 10 0ZM13.6905 6.66978C14.4812 6.66978 15.1229 7.31153 15.1229 8.10219C15.1229 8.89285 14.4806 9.5346 13.6905 9.5346C12.8999 9.5346 12.2581 8.89285 12.2581 8.10219C12.2581 7.31153 12.8999 6.66978 13.6905 6.66978ZM6.3089 6.66978C7.10015 6.66978 7.74131 7.31153 7.74131 8.10219C7.74131 8.89285 7.10015 9.5346 6.3089 9.5346C5.51825 9.5346 4.8765 8.89285 4.8765 8.10219C4.8765 7.31153 5.51883 6.66978 6.3089 6.66978ZM15.3956 13.4768C14.1705 15.2555 12.153 16.3171 10 16.3171C7.84584 16.3171 5.82774 15.2555 4.60438 13.4762C4.32993 13.078 4.43095 12.5326 4.82978 12.2581C5.22861 11.9831 5.77343 12.0847 6.04788 12.4835C6.94482 13.7874 8.42277 14.5653 10.0006 14.5653C11.5784 14.5653 13.0552 13.7874 13.9545 12.4835C14.2289 12.0858 14.7731 11.9848 15.1726 12.2587C15.569 12.5331 15.6695 13.078 15.3956 13.4768Z" fill="currentColor"/>
  </symbol>
  <symbol id="eye" viewBox="0 0 21 6">
    <path d="M18.9847 1.0515L19.128 0.969172C19.4069 0.801214 19.4724 0.469603 19.2794 0.228352C19.0847 -0.0150493 18.7018 -0.0699825 18.4287 0.0956798C8.87381 5.91294 1.91853 0.381967 1.62634 0.144302C1.37977 -0.0566439 0.991223 -0.0464608 0.76162 0.166964C0.530865 0.381249 0.542065 0.716448 0.786162 0.918111C0.799338 0.929012 1.01692 1.10242 1.41403 1.35902L0.190084 3.11676C0.0154942 3.36747 0.107072 3.69478 0.395145 3.84811C0.493641 3.89974 0.605477 3.92571 0.71369 3.92571C0.91941 3.92571 1.1197 3.83463 1.23614 3.67069L2.43291 1.95339C3.10393 2.3091 3.96436 2.69751 4.9895 3.02568L4.39969 4.74283C4.30201 5.02553 4.48468 5.32043 4.80734 5.40448L4.98325 5.42714C5.24398 5.42714 5.48775 5.27797 5.56714 5.04719L6.15119 3.35356C7.09744 3.57889 8.15601 3.73107 9.29843 3.76722V5.46802C9.29843 5.76234 9.57135 6 9.90933 6C10.247 6 10.5201 5.76234 10.5201 5.46802V3.75775C11.5169 3.71013 12.5733 3.56082 13.6764 3.28687L14.4282 5.01348C14.522 5.22619 14.7542 5.35643 14.9995 5.35643L15.2156 5.32286C15.531 5.21845 15.6909 4.91165 15.571 4.63712L14.8389 2.95482C15.8433 2.62995 16.8814 2.20224 17.9537 1.63483L18.9434 2.78529C19.0639 2.92427 19.2479 2.99886 19.4317 2.99886C19.5599 2.99886 19.6879 2.96501 19.7977 2.892C20.0685 2.71558 20.1232 2.38211 19.9216 2.14731L18.9847 1.0515Z" fill="currentColor"/>
  </symbol>
  <symbol id="hammer" viewBox="0 0 11 14">
    <path fill-rule="evenodd" clip-rule="evenodd" d="M0 12.5332L3.91846 5.0904C3.60687 4.60805 3.10266 4.52305 2.62489 4.38862L2.41906 4.79782L0.79502 3.90429L2.74197 3.05176e-05L4.3679 0.887634L4.16584 1.29486L9.17202 4.02884L9.37597 3.62161L11 4.50921L9.05494 8.41545L7.42712 7.52784L7.63107 7.11864C7.26661 6.75293 6.87571 6.42081 6.35262 6.42279L6.33562 6.41291L2.69288 14L0 12.5332Z" fill="currentColor"/>
  </symbol>
  <symbol id="more" viewBox="0 0 24 24">
    <path d="M4.5,7 C4.22385763,7 4,6.77614237 4,6.5 C4,6.22385763 4.22385763,6 4.5,6 L19.5,6 C19.7761424,6 20,6.22385763 20,6.5 C20,6.77614237 19.7761424,7 19.5,7 L4.5,7 Z M4.5,15 C4.22385763,15 4,14.7761424 4,14.5 C4,14.2238576 4.22385763,14 4.5,14 L19.5,14 C19.7761424,14 20,14.2238576 20,14.5 C20,14.7761424 19.7761424,15 19.5,15 L4.5,15 Z M10.5,11 C10.2238576,11 10,10.7761424 10,10.5 C10,10.2238576 10.2238576,10 10.5,10 L19.5,10 C19.7761424,10 20,10.2238576 20,10.5 C20,10.7761424 19.7761424,11 19.5,11 L10.5,11 Z M10.5,19 C10.2238576,19 10,18.7761424 10,18.5 C10,18.2238576 10.2238576,18 10.5,18 L19.5,18 C19.7761424,18 20,18.2238576 20,18.5 C20,18.7761424 19.7761424,19 19.5,19 L10.5,19 Z"/>
  </symbol>
  <symbol id="sort" viewBox="0 0 6 10">
    <path d="M2.83535 0.817257L0.0678501 3.54711C-0.0227707 3.63655 -0.0226184 3.78136 0.0683188 3.87065C0.159244 3.95987 0.306537 3.95964 0.397228 3.87019L3.00001 1.30282L5.60278 3.87028C5.69349 3.95972 5.84068 3.95995 5.93162 3.87074C5.97721 3.82598 6 3.76734 6 3.7087C6 3.65021 5.97736 3.59181 5.93209 3.54713L3.16466 0.817257C3.12109 0.77418 3.06179 0.750007 3.00001 0.750007C2.93823 0.750007 2.879 0.774249 2.83535 0.817257Z" fill="#1E202E"/>
    <path d="M3.16465 9.18274L5.93215 6.4529C6.02277 6.36346 6.02262 6.21865 5.93168 6.12936C5.84076 6.04014 5.69346 6.04037 5.60277 6.12982L2.99999 8.69718L0.397217 6.12973C0.306515 6.04029 0.159316 6.04006 0.0683784 6.12927C0.0227928 6.17403 0 6.23267 0 6.29131C0 6.3498 0.0226402 6.40821 0.0679097 6.45289L2.83534 9.18274C2.87891 9.22582 2.93821 9.24999 2.99999 9.24999C3.06177 9.24999 3.121 9.22575 3.16465 9.18274Z" fill="#1E202E"/>
  </symbol>
  <symbol id="dots" viewBox="0 0 3 23">
    <circle cx="1.5" cy="21.5" r="1.5" transform="rotate(-90 1.5 21.5)" fill="#BCC2C7"/>
    <circle cx="1.5" cy="11.5" r="1.5" transform="rotate(-90 1.5 11.5)" fill="#BCC2C7"/>
    <circle cx="1.5" cy="1.5" r="1.5" transform="rotate(-90 1.5 1.5)" fill="#BCC2C7"/>
  </symbol>
  <symbol id="search" viewBox="0 0 18 20">
    <path fill-rule="evenodd" clip-rule="evenodd" d="M8.15625 3.17188C5.04965 3.17188 2.53125 5.83018 2.53125 9.10938C2.53125 12.3886 5.04965 15.0469 8.15625 15.0469C11.2629 15.0469 13.7812 12.3886 13.7812 9.10938C13.7812 5.83018 11.2629 3.17188 8.15625 3.17188ZM1.96875 9.10938C1.96875 5.50227 4.73899 2.57812 8.15625 2.57812C11.5735 2.57812 14.3438 5.50227 14.3438 9.10938C14.3438 12.7165 11.5735 15.6406 8.15625 15.6406C4.73899 15.6406 1.96875 12.7165 1.96875 9.10938Z" fill="currentColor"/>
    <path fill-rule="evenodd" clip-rule="evenodd" d="M12.1332 13.3081C12.243 13.1922 12.4211 13.1922 12.5309 13.3081L15.9481 16.9152C16.058 17.0312 16.058 17.2191 15.9481 17.3351C15.8383 17.451 15.6602 17.451 15.5504 17.3351L12.1332 13.728C12.0233 13.6121 12.0233 13.4241 12.1332 13.3081Z" fill="currentColor"/>
  </symbol>
  <symbol id="search-filled" viewBox="0 0 20 19" fill="none">
    <path fill-rule="evenodd" clip-rule="evenodd" d="M13.7993 15.0793C12.5033 15.8827 10.9656 16.348 9.31671 16.348C4.69223 16.348 0.943359 12.6883 0.943359 8.17398C0.943359 3.65962 4.69223 1.0487e-10 9.31671 0C13.9412 0 17.6901 3.65962 17.6901 8.17398C17.6901 10.025 17.0598 11.7324 15.9973 13.1026C16.0384 13.1351 16.0783 13.17 16.1167 13.2073L19.3995 16.4037C19.9931 16.9816 20.0058 17.9313 19.4279 18.5248C18.8499 19.1184 17.9003 19.1311 17.3067 18.5531L14.0239 15.3568C13.9364 15.2716 13.8615 15.1783 13.7993 15.0793ZM14.387 8.27853C14.387 11.1656 12.0465 13.5061 9.15939 13.5061C6.27228 13.5061 3.93182 11.1656 3.93182 8.27853C3.93182 5.39142 6.27228 3.05096 9.15939 3.05096C12.0465 3.05096 14.387 5.39142 14.387 8.27853Z" fill="currentColor"/>
  </symbol>
  <symbol id="share" viewBox="0 0 21 21">
    <path d="M7.41125 10.5C7.41125 10.5717 7.39508 10.639 7.39074 10.7108L14.9148 14.4729C15.5597 13.9271 16.3834 13.5864 17.2936 13.5864C19.3407 13.5864 20.9999 15.2453 20.9999 17.2927C21 19.3411 19.3408 21 17.2937 21C15.2452 21 13.5887 19.3411 13.5887 17.2927C13.5887 17.2185 13.6046 17.1525 13.6092 17.0804L6.08496 13.3198C5.43816 13.8633 4.6165 14.2039 3.70622 14.2039C1.65893 14.2039 0 12.5462 0 10.5C0 8.45166 1.65893 6.79266 3.70615 6.79266C4.6165 6.79266 5.43893 7.13447 6.08489 7.67788L13.6091 3.91706C13.6046 3.84531 13.5886 3.77797 13.5886 3.70384C13.5887 1.659 15.2452 0 17.2937 0C19.3408 0 21 1.659 21 3.70391C21 5.7526 19.3408 7.41132 17.2937 7.41132C16.3811 7.41132 15.5586 7.0693 14.9148 6.52372L7.39081 10.2871C7.39508 10.3589 7.41125 10.4259 7.41125 10.5Z" fill="#BCC2C7"/>
  </symbol>
  <symbol id="user" viewBox="0 0 20 20" fill="none">
    <path fill-rule="evenodd" clip-rule="evenodd" d="M10.0638 10.4271C12.9396 10.438 15.2793 8.23514 15.2896 5.50687C15.2999 2.77861 12.977 0.558075 10.1012 0.547177C7.22541 0.536279 4.88573 2.73914 4.87539 5.46741C4.86506 8.19568 7.18797 10.4162 10.0638 10.4271ZM0.95418 17.999C1.53364 14.7794 3.89124 12.1385 7.03139 11.0135C7.88278 11.5972 8.92769 11.9428 10.058 11.9471C11.3016 11.9518 12.4449 11.5426 13.3429 10.8559C16.7486 11.8833 19.3297 14.661 19.9168 18.0709C20.0595 18.8994 19.3256 19.5823 18.4407 19.5789L2.41884 19.5182C1.53397 19.5148 0.805256 18.8264 0.95418 17.999Z" fill="currentColor"/>
  </symbol>
  <symbol id="cup" viewBox="0 0 15 12" fill="none">
    <path d="M11.8367 0.741973C11.8463 0.289341 11.8291 0.0033422 11.8291 0.0033422L7.40588 0H7.38344H7.361L2.93733 0.0033422C2.93733 0.0033422 2.92062 0.289341 2.93017 0.741973H0V1.22516C0 1.33546 0.018621 3.93713 1.62432 5.36235C2.29419 5.95679 3.12975 6.25568 4.11475 6.25616C4.26372 6.25616 4.41698 6.24613 4.57216 6.23276C5.13174 6.99908 5.77822 7.53575 6.50539 7.80313V9.92544H4.37067V11.2547H3.66546V12H7.361H7.40588H11.1014V11.2552H10.3957V9.92591H8.26101V7.8036C8.9877 7.53623 9.63466 6.99956 10.1942 6.23324C10.3504 6.24661 10.5036 6.25616 10.6526 6.25616C11.6371 6.2552 12.4727 5.95679 13.1426 5.36187C14.7483 3.93666 14.7669 1.33498 14.7669 1.22468V0.741973H11.8367ZM2.26889 4.64186C1.35169 3.83018 1.08049 2.44077 1.00028 1.70835H2.98556C3.06959 2.62078 3.26726 3.75761 3.72323 4.75693C3.80679 4.94028 3.89464 5.11407 3.9844 5.28405C3.3002 5.25779 2.72439 5.04436 2.26889 4.64186ZM12.498 4.64186C12.043 5.04484 11.4667 5.25779 10.783 5.28405C10.8727 5.11455 10.9606 4.94028 11.0441 4.75693C11.5001 3.75761 11.6978 2.62078 11.7813 1.70835H13.7666C13.6864 2.4403 13.4157 3.82971 12.498 4.64186Z" fill="#F2C94C"/>
  </symbol>
  <symbol id="delivery" viewBox="0 0 17 17" fill="none">
    <path d="M12.885 4.65836L9.86165 2.91284L3.52539 6.57106L6.54878 8.31662L12.885 4.65836Z" fill="#1C1C27"/>
    <path d="M6.33671 8.68239L0 5.02393V12.3414L6.33671 15.9999V8.68239Z" fill="#1C1C27"/>
    <path d="M0.210938 4.65819L3.10126 6.32691L9.43748 2.66869L6.54719 1L0.210938 4.65819Z" fill="#1C1C27"/>
    <path d="M13.0945 8.9718V5.02393L6.75781 8.6824V16.0001L10.0636 14.0916C9.81223 13.5608 9.69496 12.9764 9.72206 12.3897C9.74915 11.803 9.91978 11.2319 10.219 10.7265C10.5182 10.2211 10.9368 9.79688 11.4381 9.49094C11.9395 9.18501 12.5082 9.00675 13.0945 8.9718Z" fill="#1C1C27"/>
    <path d="M13.311 9.3877C12.6843 9.38769 12.0718 9.5735 11.5507 9.92164C11.0297 10.2698 10.6236 10.7646 10.3838 11.3435C10.144 11.9225 10.0812 12.5595 10.2034 13.1741C10.3257 13.7887 10.6274 14.3533 11.0705 14.7964C11.5136 15.2395 12.0781 15.5413 12.6927 15.6635C13.3073 15.7858 13.9444 15.7231 14.5233 15.4833C15.1023 15.2435 15.5971 14.8374 15.9453 14.3164C16.2934 13.7954 16.4793 13.1828 16.4793 12.5562C16.4784 11.7161 16.1443 10.9108 15.5503 10.3168C14.9563 9.72279 14.151 9.38866 13.311 9.3877ZM15.0367 12.927L13.4847 15.1704C13.4653 15.1985 13.4393 15.2215 13.409 15.2373C13.3788 15.2532 13.3451 15.2615 13.311 15.2615C13.2768 15.2615 13.2431 15.2532 13.2129 15.2373C13.1826 15.2215 13.1566 15.1985 13.1372 15.1704L11.5852 12.927C11.3225 12.5478 11.2048 12.0867 11.2536 11.6279C11.3024 11.1692 11.5143 10.7432 11.8509 10.4276C12.656 9.66062 13.9659 9.66069 14.771 10.4276C15.1075 10.7432 15.3195 11.1692 15.3683 11.6279C15.417 12.0867 15.2994 12.5477 15.0367 12.927Z" fill="#1C1C27"/>
    <path d="M14.4796 10.7338C14.1623 10.438 13.7447 10.2734 13.311 10.2734C12.8772 10.2734 12.4596 10.438 12.1423 10.7338C11.8791 10.9802 11.7131 11.3129 11.6746 11.6714C11.6361 12.0299 11.7277 12.3903 11.9327 12.6869L13.311 14.6791L14.6892 12.6869C14.8942 12.3903 14.9858 12.0299 14.9473 11.6714C14.9088 11.3129 14.7428 10.9802 14.4796 10.7338ZM13.311 12.9701C13.0849 12.9701 12.8638 12.903 12.6758 12.7774C12.4877 12.6518 12.3412 12.4732 12.2546 12.2643C12.1681 12.0553 12.1454 11.8255 12.1896 11.6037C12.2337 11.3819 12.3426 11.1781 12.5025 11.0182C12.6624 10.8583 12.8661 10.7494 13.0879 10.7053C13.3097 10.6612 13.5396 10.6838 13.7485 10.7704C13.9574 10.8569 14.136 11.0034 14.2616 11.1915C14.3873 11.3795 14.4543 11.6006 14.4543 11.8267C14.454 12.1298 14.3334 12.4204 14.1191 12.6348C13.9047 12.8491 13.6141 12.9697 13.311 12.9701Z" fill="#1C1C27"/>
  </symbol>
</svg>
