<svg width="68" height="25" viewBox="0 0 68 25" fill="none"
  xmlns="http://www.w3.org/2000/svg">
  <path d="M15.0645 24.0893C15.0645 23.593 17.3426 23.1761 20.1556 23.1761C22.9686 23.1761 25.2491 23.5831 25.2491 24.0893C25.2491 24.5955 22.9781 25 20.1604 25C17.3426 25 15.0645 24.593 15.0645 24.0893Z" fill="#9F234B"/>
  <path d="M13.5658 16.8759C13.5655 17.2379 13.5407 17.5994 13.4915 17.9578H3.58739C3.67962 18.7742 4.05545 19.5282 4.64494 20.0793C5.25058 20.5952 6.01956 20.8605 6.80322 20.8238C7.3704 20.8307 7.92994 20.6881 8.42912 20.4094C8.90433 20.1443 9.2994 19.7484 9.57061 19.2655H13.3068C12.8665 20.6852 11.9965 21.9206 10.8253 22.7893C9.65415 23.6579 8.24399 24.1137 6.80322 24.0893C5.89958 24.1138 5.00091 23.9433 4.16443 23.5887C3.32795 23.2341 2.572 22.7032 1.9447 22.0297C1.30684 21.3581 0.806146 20.5605 0.472433 19.6844C0.13872 18.8084 -0.0211839 17.8718 0.00224873 16.9305C-0.000319301 16.1478 0.110421 15.3691 0.330785 14.6203C0.541103 13.9078 0.865339 13.2368 1.29002 12.6352C1.69463 12.0583 2.17949 11.5466 2.72887 11.1166C3.29569 10.682 3.92759 10.3467 4.59938 10.124C5.31386 9.88681 6.06007 9.7679 6.81041 9.77166C8.04916 9.75183 9.26966 10.0821 10.3404 10.727C11.359 11.3393 12.1901 12.2363 12.7385 13.3151C13.2949 14.4128 13.5792 15.6364 13.5658 16.8759ZM6.79363 12.8833C6.06934 12.8594 5.35988 13.0991 4.78883 13.5607C4.22901 14.0446 3.84019 14.707 3.68331 15.4441H10.0286C9.88715 14.9347 9.6473 14.4603 9.32361 14.0496C9.02279 13.6795 8.64591 13.3837 8.22049 13.1836C7.77088 12.9798 7.28446 12.8774 6.79363 12.8833Z" fill="#ED1D4A"/>
  <path d="M37.1891 22.4169C36.07 23.5319 34.5816 24.0885 32.7239 24.0869C30.8662 24.0852 29.3762 23.5244 28.2539 22.4045C27.1347 21.2829 26.5752 19.8089 26.5752 17.9826V12.5236H30.1196V17.5558C30.1196 18.5286 30.3506 19.2862 30.8126 19.8288C31.3225 20.3531 32.0122 20.6474 32.7311 20.6474C33.4499 20.6474 34.1396 20.3531 34.6496 19.8288C35.11 19.2845 35.3402 18.5269 35.3402 17.5558V10.1464H38.8774V17.9826C38.8774 19.8255 38.3146 21.3036 37.1891 22.4169Z" fill="#ED1D4A"/>
  <path d="M53.7166 24.0868H49.4216L45.2202 17.6054V24.0868H41.6758V5.6228H45.2202V16.5508L49.388 10.1464H53.4912L48.8125 16.9776L53.7166 24.0868Z" fill="#ED1D4A"/>
  <path d="M68.0002 24.0868H63.7004L59.5014 17.6054V24.0868H55.957V5.6228H59.5014V16.5508L63.6693 10.1464H67.7748L63.0937 16.9776L68.0002 24.0868Z" fill="#ED1D4A"/>
  <path fill-rule="evenodd" clip-rule="evenodd" d="M15.5898 15.732L20.5659 6.38958C20.1702 5.78412 19.5299 5.67742 18.9232 5.50869L18.6618 6.02233L16.5994 4.90074L19.0719 0L21.1366 1.11414L20.88 1.62531L27.2374 5.05707L27.4963 4.54591L29.5587 5.66005L27.0887 10.5633L25.0215 9.44913L25.2805 8.93548C24.8177 8.47643 24.3213 8.05955 23.657 8.06203L23.6354 8.04963L19.0095 17.5732L15.5898 15.732Z" fill="#ED1D4A"/>
</svg>
