<svg width="153" height="56" viewBox="0 0 153 56" fill="none" xmlns="http://www.w3.org/2000/svg">
<path d="M33.7451 53.96C33.7451 52.8483 38.8482 51.9146 45.1492 51.9146C51.4502 51.9146 56.5587 52.8261 56.5587 53.96C56.5587 55.0939 51.4717 55.9999 45.16 55.9999C38.8482 55.9999 33.7451 55.0883 33.7451 53.96Z" fill="white"/>
<path d="M30.3873 37.802C30.3867 38.6128 30.3311 39.4226 30.2208 40.2254H8.03573C8.24231 42.0543 9.08418 43.7433 10.4046 44.9777C11.7613 46.1333 13.4838 46.7274 15.2392 46.6452C16.5096 46.6608 17.763 46.3413 18.8812 45.717C19.9456 45.1233 20.8306 44.2365 21.4381 43.1546H29.8072C28.8209 46.3347 26.872 49.1022 24.2486 51.048C21.6252 52.9938 18.4665 54.0147 15.2392 53.9599C13.215 54.0148 11.202 53.633 9.32829 52.8387C7.45458 52.0444 5.76125 50.8551 4.35611 49.3465C2.92732 47.8421 1.80576 46.0555 1.05825 44.0931C0.310731 42.1308 -0.0474518 40.0329 0.00503714 37.9243C-0.000715233 36.171 0.247341 34.4267 0.740957 32.7495C1.21207 31.1535 1.93835 29.6505 2.88963 28.3029C3.79595 27.0107 4.88205 25.8644 6.11265 24.9012C7.38231 23.9278 8.79776 23.1768 10.3026 22.6779C11.903 22.1466 13.5745 21.8802 15.2553 21.8886C18.0301 21.8442 20.764 22.5841 23.1624 24.0285C25.444 25.4001 27.3058 27.4094 28.5341 29.8258C29.7805 32.2848 30.4173 35.0255 30.3873 37.802ZM15.2177 28.8587C13.5953 28.8051 12.0061 29.3421 10.7269 30.3761C9.47295 31.46 8.602 32.9437 8.25059 34.5948H22.4641C22.1471 33.4538 21.6099 32.3912 20.8848 31.4711C20.211 30.6422 19.3668 29.9795 18.4138 29.5313C17.4067 29.0747 16.3171 28.8455 15.2177 28.8587Z" fill="white"/>
<path d="M83.3044 50.2133C80.7976 52.7108 77.4636 53.9577 73.3023 53.954C69.1411 53.9503 65.8034 52.6941 63.2895 50.1855C60.7827 47.6731 59.5293 44.3715 59.5293 40.2806V28.0524H67.4687V39.3246C67.4687 41.5034 67.9861 43.2006 69.0211 44.416C70.1633 45.5904 71.7082 46.2495 73.3184 46.2495C74.9287 46.2495 76.4736 45.5904 77.6158 44.416C78.6472 43.1969 79.1628 41.4997 79.1628 39.3246V22.7275H87.0861V40.2806C87.0861 44.4086 85.8255 47.7194 83.3044 50.2133Z" fill="white"/>
<path d="M120.326 53.9544H110.705L101.294 39.4362V53.9544H93.3545V12.5952H101.294V37.0739L110.63 22.728H119.821L109.341 38.0299L120.326 53.9544Z" fill="white"/>
<path d="M152.319 53.9544H142.688L133.282 39.4362V53.9544H125.343V12.5952H133.282V37.0739L142.618 22.728H151.814L141.329 38.0299L152.319 53.9544Z" fill="white"/>
<path fill-rule="evenodd" clip-rule="evenodd" d="M34.9209 35.2395L46.0672 14.3126C45.1808 12.9564 43.7466 12.7174 42.3876 12.3394L41.802 13.49L37.1824 10.9776L42.7206 0L47.3456 2.49567L46.7709 3.64068L61.0112 11.3278L61.5914 10.1828L66.211 12.6785L60.6782 23.6616L56.0478 21.166L56.6279 20.0154C55.5912 18.9871 54.4792 18.0533 52.9913 18.0589L52.9429 18.0311L42.5809 39.3638L34.9209 35.2395Z" fill="white"/>
</svg>
