<svg width="526" height="193" viewBox="0 0 526 193" fill="none" xmlns="http://www.w3.org/2000/svg">
<path d="M116.356 185.967C116.356 182.139 133.945 178.935 155.667 178.935C177.39 178.935 195.002 182.06 195.002 185.967C195.002 189.874 177.468 193 155.706 193C133.945 193 116.356 189.859 116.356 185.967Z" fill="#9F234B"/>
<path d="M104.753 130.295C104.752 133.089 104.559 135.88 104.175 138.647H27.7016C28.3794 144.916 31.2754 150.736 35.867 155.056C40.4958 159.007 46.4544 161.05 52.5337 160.768C56.9272 160.815 61.2563 159.71 65.0904 157.565C68.7856 155.489 71.8358 152.434 73.9043 148.735H102.753C99.4144 159.607 92.7045 169.136 83.5934 175.943C74.6293 182.619 63.7099 186.147 52.5337 185.975C45.5422 186.162 38.5923 184.843 32.1555 182.108C25.6601 179.348 19.8208 175.247 15.0199 170.074C10.0678 164.853 6.2032 158.699 3.65092 151.97C1.06984 145.186 -0.1643 137.965 0.0175306 130.709C-0.00525977 124.673 0.85019 118.667 2.557 112.878C4.16788 107.396 6.6705 102.216 9.96443 97.5472C13.0681 93.1147 16.8096 89.1652 21.0678 85.8265C25.4236 82.4854 30.3066 79.8948 35.5154 78.1613C41.0206 76.3322 46.7874 75.4137 52.5884 75.4421C62.1851 75.2971 71.6292 77.853 79.8428 82.8182C87.776 87.6026 94.2019 94.524 98.3848 102.79C102.686 111.314 104.871 120.748 104.753 130.295ZM52.4556 99.4693C46.835 99.3014 41.3413 101.159 36.9766 104.705C32.6255 108.491 29.6295 113.594 28.444 119.238H77.4362C76.3486 115.323 74.4889 111.665 71.9665 108.479C69.6628 105.638 66.7492 103.352 63.4417 101.79C59.993 100.222 56.2439 99.4247 52.4556 99.4537V99.4693Z" fill="#ED1D4A"/>
<path d="M287.173 173.058C278.52 181.664 267.026 185.958 252.691 185.943C238.355 185.927 226.848 181.598 218.17 172.956C209.528 164.309 205.207 152.93 205.207 138.818V96.6942H232.555V135.544C232.555 143.056 234.339 148.903 237.907 153.086C239.832 155.081 242.138 156.669 244.688 157.755C247.238 158.841 249.981 159.403 252.753 159.407C255.525 159.403 258.268 158.841 260.818 157.755C263.369 156.669 265.675 155.081 267.599 153.086C271.157 148.887 272.934 143.04 272.928 135.544V78.3397H300.276V138.834C300.23 153.055 295.862 164.463 287.173 173.058Z" fill="#ED1D4A"/>
<path d="M414.795 185.944H381.626L349.183 135.936V185.944H321.858V43.4051H349.207V127.794L381.391 78.3482H413.076L376.922 131.075L414.795 185.944Z" fill="#ED1D4A"/>
<path d="M525.086 185.944H491.877L459.458 135.936V185.944H432.11V43.4051H459.458V127.794L491.643 78.3482H523.343L487.197 131.075L525.086 185.944Z" fill="#ED1D4A"/>
<path fill-rule="evenodd" clip-rule="evenodd" d="M120.381 121.449L158.809 49.3282C155.754 44.64 150.808 43.8586 146.119 42.5224L144.103 46.4918L128.179 37.8342L147.268 0L163.216 8.59513L161.231 12.502L210.325 38.9984L212.325 35.0525L228.25 43.6476L209.176 81.5443L193.213 72.9492L195.213 68.9876C191.634 65.4401 187.806 62.2209 182.672 62.2443L182.508 62.1506L146.83 135.662L120.381 121.449Z" fill="#ED1D4A"/>
</svg>
