<svg width="20" height="22" viewBox="0 0 20 22" fill="none" xmlns="http://www.w3.org/2000/svg">
<path d="M10.2665 21.305C11.4959 21.3097 12.5054 20.3685 12.5098 19.2135L8.03922 19.1966C8.03485 20.3516 9.03714 21.3004 10.2665 21.305ZM17.5551 15.0326L17.577 9.25763C17.5893 6.00265 15.2522 3.36878 12.0138 2.6215L12.0166 1.88651C12.0198 1.04651 11.2402 0.308553 10.3461 0.305165C9.45201 0.301776 8.66688 1.03381 8.6637 1.8738L8.66091 2.6088C5.41697 3.33151 3.05998 5.9476 3.04765 9.20257L3.02576 14.9775L0.782529 17.069L0.77855 18.119L19.7784 18.191L19.7824 17.141L17.5551 15.0326Z" fill="#BCC2C7"/>
</svg>
