<svg width="20" height="20" viewBox="0 0 20 20" fill="none" xmlns="http://www.w3.org/2000/svg">
<path fill-rule="evenodd" clip-rule="evenodd" d="M19.6756 0.0722466C19.8745 0.168966 20.0001 0.378402 20 0.612978C19.9998 0.85537 9.06884 18.946 8.65934 19.3816C7.97766 20.1067 6.89028 20.2064 6.10541 19.6158C5.92233 19.4781 0.542869 12.7642 0.296333 12.3657C-0.580681 10.9484 0.612263 8.99815 2.26024 9.15516C2.96885 9.22263 2.99632 9.24283 5.28829 11.381C7.29505 13.2532 7.29309 13.2515 7.5213 13.2511C7.74018 13.2508 7.48838 13.5324 13.4679 6.60079C16.5257 3.0561 19.0906 0.119875 19.1677 0.0759034C19.343 -0.0241982 19.4754 -0.0251581 19.6756 0.0722466Z" fill="#ED1D4A"/>
</svg>
